<?xml version="1.0" encoding="iso-8859-1"?>
<!-- Generator: Adobe Illustrator 18.1.1, SVG Export Plug-In . SVG Version: 6.00 Build 0)  -->
<svg xmlns="http://www.w3.org/2000/svg" xmlns:xlink="http://www.w3.org/1999/xlink" version="1.1" id="Capa_1" x="0px" y="0px" viewBox="0 0 15.438 15.438" style="enable-background:new 0 0 15.438 15.438;" xml:space="preserve" width="512px" height="512px">
<g>
	<path d="M13.926,14.284V0.525C13.926,0.106,13.402,0,13.402,0H3.085C1.512,0,1.512,1.452,1.512,1.452v13.427   c0,0.308,0.249,0.559,0.56,0.559h10.069c0.309,0,0.559-0.251,0.559-0.559l0.666-0.002C13.967,14.877,13.926,14.284,13.926,14.284z    M8.02,6.846v6.06H6.861v-6.06H4.307V5.687h2.554v-2.05H8.02v2.05h2.553l0.001,1.159C10.574,6.846,8.02,6.846,8.02,6.846z    M13.278,13.554c0,0-0.1,0.364-0.578,0.364v-3.907V2.035c0-0.309-0.25-0.559-0.559-0.559L2.613,1.471   c0-0.384,0.578-0.579,0.578-0.579H12.7c0.596,0,0.578,0.525,0.578,0.525S13.278,13.554,13.278,13.554z" fill="#006DF0"/>
</g>
<g>
</g>
<g>
</g>
<g>
</g>
<g>
</g>
<g>
</g>
<g>
</g>
<g>
</g>
<g>
</g>
<g>
</g>
<g>
</g>
<g>
</g>
<g>
</g>
<g>
</g>
<g>
</g>
<g>
</g>
</svg>
